**ABCDEFGHIJKLMNOPQRSTUVWXYZabcdefghijklmnopqrstuvwxyz**************************
**PARASOLID !"#$%&'()*+,-./:;<=>?@[\]^_`{|}~0123456789**************************
**PART1;
MC=AMD64;
MC_MODEL=Intel64 Family 6 Model 37 Stepping 2, GenuineIntel;
MC_ID=unknown;
OS=Windows_NT;
OS_RELEASE=unknown;
FRU=Parasolid Version 25.1, build 198,  6-19-2013;
APPL=SolidWorks 2014-2013262;
SITE=;
USER=unknown;
FORMAT=text;
GUISE=transmit;
KEY=New - 2D;
FILE=New - 2D.x_t;
DATE=Fri Nov 03 22:01:43 2017;
**PART2;
SCH=SCH_2501198_25001;
USFLD_SIZE=0;
**PART3;
**END_OF_HEADER*****************************************************************
T51 : TRANSMIT FILE created by modeller version 250119823 SCH_2501198_25001_1300
6189 0 12 29 CCCCCCCCCCCCCDI5 owner1040 0 CCCCCCCCCA16 index_map_offset0 0 1 dA9
 index_map82 0 A17 node_id_index_map82 0 A20 schema_embedding_map82 0 A5 child12
 0 A14 lowest_node_id0 0 1 dZ1 127 0 2 0 0 0 0 1e3 1e-8 0 3 0 1 0 3 1 4 5 6 7 8
 9 10 0 0 0 0 0 0 70 11 CI9 list_type0 0 1 uI10 notransmit0 0 1 lCCCDCCDI12 fing
er_index0 0 1 dI12 finger_block1012 0 CZ2 0 4 T1 0 0 2 20 1 11 11 13 255 4 81 0
 1 0 12 0 0 8 12 50 255 5 2 0 12 0 0 0 +0 0 0 0 1 0 0 0 1 31 255 6 42 0 9 13 0 0
 +0 0 0 0 1 0 0 0 1 .575 29 255 7 79 0 10 14 0 .481704780987803 0 -.275339360984
735 19 8 CCCCCCCA5 owner12 0 Z8 80 0 1 0 0 4 V0 16 255 9 41 0 ?15 0 16 6 0 0 1 1
8 255 10 77 0 17 0 18 7 ?1 17 255 17 0 0 0 0 10 19 20 0 21 +18 18 74 0 22 10 23
 14 ?1 17 22 0 24 21 25 18 26 27 0 28 -18 23 71 0 25 18 29 30 ?1 29 14 76 0 18 3
0 7 .49816309904083 0 -.285663644436595 29 30 73 0 23 31 14 .322141568259365 0 -
.339013561277442 29 31 70 0 29 32 30 -.4233029698742015 0 -.1135799093387374 18
 29 68 0 33 23 34 31 ?1 29 32 67 0 34 35 31 -.479519377320509 0 -.27911231975270
15 18 34 65 0 36 29 37 32 ?1 29 35 64 0 37 38 32 -.496473522540039 0 -.288590076
7790835 18 37 62 0 39 34 40 35 ?1 29 38 61 0 40 41 35 -.454665140423271 0 -.1094
760010888942 18 40 59 0 42 37 43 38 ?1 29 41 58 0 43 44 38 .113288398090332 0 .4
23381080077787 18 43 56 0 45 40 46 41 ?1 29 44 55 0 46 47 41 -.00240150921931734
5 0 .55483825795211 18 46 53 0 48 43 49 44 ?1 29 47 52 0 49 50 44 -.001689576500
657205 0 .574253721215521 18 49 50 0 51 46 52 47 ?1 29 50 49 0 52 53 47 .1325235
72164029 0 .448489562366176 18 52 47 0 54 49 55 50 ?1 29 53 46 0 55 0 50 .310014
571784003 0 -.309801170739205 18 55 44 0 19 52 0 53 ?1 17 19 0 24 54 21 55 17 20
 0 56 -15 255 24 3 0 19 12 57 17 54 0 24 51 19 52 56 58 0 59 -17 21 0 24 19 22 1
0 28 16 0 0 -16 20 5 0 ?17 58 0 60 0 0 1 17 56 0 0 0 0 55 54 58 0 0 +16 58 8 0 ?
56 61 20 62 0 0 1 16 61 11 0 ?59 63 58 64 0 0 1 134 255 62 9 0 58 60 64 0 +65 66
 31 60 6 0 20 0 62 0 +.380325382168292 0 -.215177748084833 0 -1 0 0 0 1 .1178863
95193521 31 64 12 0 61 62 67 0 +-.00682220474087673 0 .434279321347597 0 1 0 0 0
 1 .1400684707242776 136 255 65 3 40 3 38 6 FFF1 68 69 70 135 255 66 2 0 45 255
 120 68 .132523572164035 0 .4484895623661715 .1325378455778134 0 .44835401359865
7 .1325630230347558 0 .4480709782825425 .132592561221786 0 .4475957336109815 .13
26097712926688 0 .447057089270076 .132612212334774 0 .4464556926153975 .13259929
95571236 0 .445661132467163 .1325592093064752 0 .444634118510603 .13245356610169
24 0 .442817215162282 .1322487261554642 0 .4401438444434625 .1317780379506664 0
 .4349034866193365 .1309419822856356 0 .4265343719659995 .129616448828888 0 .413
727808173467 .128047139502428 0 .398381634162515 .1263139175972738 0 .3807321184
82691 .1244972786806294 0 .3610231107057765 .122071529030114 0 .332327032273457
 .1192348128451574 0 .292543648580736 .1167902306665106 0 .240537638028961 .1160
90345764689 0 .195312674433838 .1166525176438118 0 .15901700664875 .117714767946
2426 0 .131974990539718 .1194933069259014 0 .105436889457439 .122075357673478 0
 .0793595207903244 .1255707908285914 0 .0530720264515322 .1300910410946432 0 .02
596495414180855 .13574099115563 0 -.002386118690666375 .1449547338954412 0 -.041
3483742127293 .159953976335542 0 -.0915638616596331 .18046267903407 0 -.14187201
33149592 .2006845544481675 0 -.1810402973052105 .2178840571289045 0 -.2095969693
766895 .237242694625014 0 -.2370573548238865 .255279993683996 0 -.25880037065963
15 .270918761703602 0 -.2753770594893625 .2832681244296525 0 -.287366906551469 .
2940942795625395 0 -.2969650622698275 .3030767088101485 0 -.304384771518581 .307
6908937389505 0 -.3080166057081335 .310014571784003 0 -.309801170739205 127 255
 38 69 4 1 1 1 1 1 1 1 1 1 1 1 1 1 1 1 1 1 1 1 1 1 1 1 1 1 1 1 1 1 1 1 1 1 1 1 1
 4 128 255 38 70 4469639792278025e-20 .00199773410027056 .003950771802618345 .00
785684720731402 .0117629226120097 .01566899801670525 .0234811488260965 .03129329
963548775 .0469176012542702 .0625419028730526 .0937905061106174 .125039109348182
4 .1562877125857475 .1875363158233125 .2187849190608775 .250033522298442 .312530
728773572 .375027935248702 .4375251417238315 .468773744961396 .500022348198961 .
531270951436526 .562519554674091 .593768157911656 .625016761149221 .656265364386
786 .687513967624351 .750011174099481 .812508380574611 .843756983812176 .8750055
8704974 .906254190287305 .93750279352487 .953127095143653 .968751396762435 .9843
75698381218 .992187849190609 1 31 67 15 0 63 64 71 0 +-.002045542859990905 0 .56
4545989583816 0 1 0 0 0 1 .00971425578632749 16 63 14 0 ?72 73 61 67 0 0 1 31 71
 18 0 73 67 74 0 +-.00381329491353674 0 .4369603167040685 0 -1 0 0 0 1 .11788639
5193521 16 73 17 0 ?75 76 63 71 0 0 1 134 74 21 0 76 71 77 0 +78 79 16 76 20 0 ?
80 81 73 74 0 0 1 31 77 24 0 81 74 82 0 +-.3726858222548305 0 -.2230478632893305
 0 1 0 0 0 1 .1400684707242758 136 78 3 40 3 38 6 FFF1 83 84 85 135 79 2 0 45 12
0 83 -.454665140423266 0 -.109476001088887 -.454554888454036 0 -.109395865566199
 -.454322361408584 0 -.109232543590827 -.453925556543514 0 -.1089693404346964 -.
453467681896126 0 -.1086851139056582 -.452948077636477 0 -.1083823015738444 -.45
2253511974445 0 -.1079962042932056 -.451344046672699 0 -.107517416490431 -.44971
7740614441 0 -.1067004545153498 -.447300113685096 0 -.1055411657530836 -.4425264
86582083 0 -.1033286147836372 -.4348605928525935 0 -.0998681029018634 -.42310701
65447 0 -.0946127666527067 -.4090321853370895 0 -.0882987413903409 -.39288064544
1293 0 -.0809749977506881 -.3749038245647775 0 -.0726937493135482 -.348839416828
1405 0 -.0604464709179562 -.3129676378092625 0 -.04301144735109475 -.26670682043
26205 0 -.01912551234355395 -.2271909106231065 0 .00288085134930455 -.1960390262
134615 0 .0215155403704622 -.173151078444707 0 .035956484172061 -.15105767822908
35 0 .0507657946512061 -.129765039873298 0 .066040600526025 -.108747118551621 0
 .0822114816049799 -.0875318304422045 0 .0996796693217058 -.0658040561752318 0 .
1187482060208714 -.0366686244742903 0 .1462086690585136 -.000680357901903501 0 .
1843061377726145 .03263342809978525 0 .2272212711358655 .0564432193509374 0 .264
318070951763 .0725742714720113 0 .2934916132414795 .0866763441189416 0 .32398687
78193625 .0964876986580932 0 .350479144937971 .1030241482854672 0 .3723110597417
07 .107232979065716 0 .3890008451140685 .1101321481808502 0 .403175648343639 .11
20665902551606 0 .4146645148841415 .1129047584612446 0 .4204764333450195 .113288
398090332 0 .423381080077787 127 38 84 4 1 1 1 1 1 1 1 1 1 1 1 1 1 1 1 1 1 1 1 1
 1 1 1 1 1 1 1 1 1 1 1 1 1 1 1 1 4 128 38 85 4469639792278025e-20 .0019977341002
7056 .003950771802618345 .00785684720731402 .0117629226120097 .01566899801670525
 .0234811488260965 .03129329963548775 .0469176012542702 .0625419028730526 .09379
05061106174 .1250391093481824 .1562877125857475 .1875363158233125 .2187849190608
775 .250033522298442 .312530728773572 .375027935248702 .4375251417238315 .468773
744961396 .500022348198961 .531270951436526 .562519554674091 .593768157911656 .6
25016761149221 .656265364386786 .687513967624351 .750011174099481 .8125083805746
11 .843756983812176 .87500558704974 .906254190287305 .93750279352487 .9531270951
43653 .968751396762435 .984375698381218 .992187849190609 1 16 81 23 0 ?86 87 76
 77 0 0 1 31 82 27 0 87 77 88 0 +-.487888397154193 0 -.284044486873306 0 1 0 0 0
 1 .00971425578632773 16 87 26 0 ?89 90 81 82 0 0 1 31 88 30 0 90 82 91 0 +-.376
512087254633 0 -.221782568619393 0 -1 0 0 0 1 .117886395193519 16 90 29 0 ?92 93
 87 88 0 0 1 134 91 33 0 93 88 94 0 +95 96 16 93 32 0 ?97 27 90 91 0 0 1 31 94 3
6 0 27 91 13 0 +.37950802699583 0 -.2112314580584235 0 1 0 0 0 1 .14006847072427
98 136 95 3 40 3 38 6 FFF1 98 99 100 135 96 2 0 45 120 98 .3221415682593635 0 -.
3390135612774395 .32201704287635 0 -.3389581480326115 .3217593383739555 0 -.3388
38434691869 .3213329953218555 0 -.3386263931764385 .320857910603585 0 -.33837197
5364571 .32033586530183 0 -.3380733910417065 .319654212417449 0 -.33766492817411
05 .318784837366351 0 -.337116702020325 .317264174512876 0 -.3361167606470855 .3
15051387529759 0 -.3346026786905325 .310748448631544 0 -.331574871835853 .303918
610567085 0 -.3266662690642895 .2934905677159395 0 -.3191150415209135 .280985045
8347885 0 -.3100828927723275 .2665667278441465 0 -.299757120732156 .250406545884
275 0 -.288329361392381 .2267678877981535 0 -.2718805613556535 .193732824964232
 0 -.249532201229794 .1499165897662364 0 -.2214121256855595 .1111005648585444 0
 -.198193525783295 .0793865085697762 0 -.1805325470193645 .055436310498591 0 -.1
67931474711931 .0315643713033084 0 -.156202684108797 .00768968219994667 0 -.1454
001213165012 -.01682367227684385 0 -.135283508056664 -.0425592106523124 0 -.1256
446234636662 -.0699369349802721 0 -.1163620873303566 -.1082861094210248 0 -.1048
60294845936 -.159273618433513 0 -.0927422761131331 -.2130961071337295 0 -.085349
2578210577 -.2571277737989795 0 -.0832777736467045 -.2904583286007905 0 -.083894
6438649419 -.3239190387438305 0 -.0869295229956284 -.351767692341964 0 -.0916787
742784917 -.373942909988944 0 -.0969340002524966 -.3905011034952435 0 -.10163393
85627522 -.404226427743265 0 -.106210586073964 -.415143299065184 0 -.11027974336
57132 -.42059565220007 0 -.112459827637039 -.4233029698742015 0 -.11357990933873
74 127 38 99 4 1 1 1 1 1 1 1 1 1 1 1 1 1 1 1 1 1 1 1 1 1 1 1 1 1 1 1 1 1 1 1 1 1
 1 1 1 4 128 38 100 446963979192552e-19 .001997734100267035 .00395077180261482 .
00785684720731049 .01176292261200616 .01566899801670175 .02348114882609295 .0312
932996354842 .0469176012542667 .0625419028730493 .0937905061106143 .125039109348
1792 .1562877125857445 .1875363158233095 .2187849190608745 .2500335222984395 .31
25307287735695 .3750279352486995 .4375251417238295 .468773744961395 .50002234819
896 .531270951436525 .56251955467409 .593768157911655 .62501676114922 .656265364
386785 .68751396762435 .75001117409948 .81250838057461 .843756983812175 .8750055
8704974 .906254190287305 .93750279352487 .953127095143652 .968751396762435 .9843
75698381218 .992187849190609 1 16 27 35 0 ?26 16 93 94 0 0 1 31 13 39 0 16 94 6
 0 +.489933940014316 0 -.280501502710665 0 1 0 0 0 1 .00971425578632961 16 16 38
 0 ?28 9 27 13 0 0 1 17 28 0 0 0 0 18 21 16 0 0 +17 26 0 0 0 0 23 22 27 0 0 +17
 97 0 0 0 0 29 25 93 0 0 +17 25 0 24 22 33 23 97 93 0 26 -17 33 0 24 25 36 29 92
 90 0 97 -17 36 0 24 33 39 34 89 87 0 92 -17 92 0 0 0 0 34 33 90 0 0 +17 39 0 24
 36 42 37 86 81 0 89 -17 89 0 0 0 0 37 36 87 0 0 +17 42 0 24 39 45 40 80 76 0 86
 -17 86 0 0 0 0 40 39 81 0 0 +17 45 0 24 42 48 43 75 73 0 80 -17 80 0 0 0 0 43 4
2 76 0 0 +17 48 0 24 45 51 46 72 63 0 75 -17 75 0 0 0 0 46 45 73 0 0 +17 51 0 24
 48 54 49 59 61 0 72 -17 72 0 0 0 0 49 48 63 0 0 +17 59 0 0 0 0 52 51 61 0 0 +14
 255 12 1 101 ?0 0 24 4 5 +0 0 0 0 4 15 57 4 0 15 12 0 17 15 0 57 15 15 0 102 9
 0 0 +17 102 0 0 0 0 0 15 9 0 0 -81 255 1 101 127 103 12 104 0 0 0 105 80 255 1
 103 106 107 9000 1 1 1 1 1 1 1 1 0 FFFFTFTFFFFFFF1 81 1 104 109 108 12 0 101 0
 0 109 82 255 1 105 -1409417090 80 1 108 0 110 8001 0 0 0 0 3 5 0 0 0 FFFFTFTFFF
FFFF2 83 255 3 109 .792156862745098 .819607843137255 .933333333333333 79 255 15
 110 SDL/TYSA_COLOUR79 14 107 SWEntUnchanged74 4 CI16 index_map_offset0 0 1 dCCZ
20 11 2 0 0 104 101 0 0 0 0 0 0 0 0 0 0 0 0 0 0 0 0 0 0 1 0 
