**ABCDEFGHIJKLMNOPQRSTUVWXYZabcdefghijklmnopqrstuvwxyz**************************
**PARASOLID !"#$%&'()*+,-./:;<=>?@[\]^_`{|}~0123456789**************************
**PART1;
MC=AMD64;
MC_MODEL=Intel64 Family 6 Model 37 Stepping 2, GenuineIntel;
MC_ID=unknown;
OS=Windows_NT;
OS_RELEASE=unknown;
FRU=Parasolid Version 25.1, build 198,  6-19-2013;
APPL=SolidWorks 2014-2013262;
SITE=;
USER=unknown;
FORMAT=text;
GUISE=transmit;
KEY=2 - 2D;
FILE=2 - 2D.x_t;
DATE=Sat Oct 28 21:24:22 2017;
**PART2;
SCH=SCH_2501198_25001;
USFLD_SIZE=0;
**PART3;
**END_OF_HEADER*****************************************************************
T51 : TRANSMIT FILE created by modeller version 250119823 SCH_2501198_25001_1300
6189 0 12 29 CCCCCCCCCCCCCDI5 owner1040 0 CCCCCCCCCA16 index_map_offset0 0 1 dA9
 index_map82 0 A17 node_id_index_map82 0 A20 schema_embedding_map82 0 A5 child12
 0 A14 lowest_node_id0 0 1 dZ1 289 0 2 0 0 0 0 1e3 1e-8 0 3 0 1 0 3 1 4 5 6 7 8
 9 10 0 0 0 0 0 0 70 11 CI9 list_type0 0 1 uI10 notransmit0 0 1 lCCCDCCDI12 fing
er_index0 0 1 dI12 finger_block1012 0 CZ2 0 4 T1 0 0 2 20 1 11 11 13 255 4 205 0
 1 0 12 0 0 8 12 50 255 5 2 0 12 0 0 0 +0 0 0 0 1 0 0 0 1 31 255 6 106 0 9 13 0
 0 +0 0 0 0 1 0 0 0 1 1.55 29 255 7 203 0 10 14 0 .01114721608976602 0 -1.451283
73517413 19 8 CCCCCCCA5 owner12 0 Z8 204 0 1 0 0 4 V0 16 255 9 105 0 ?15 0 16 6
 0 0 1 18 255 10 201 0 17 0 18 7 ?1 17 255 17 0 0 0 0 10 19 20 0 21 +18 18 198 0
 22 10 23 14 ?1 17 22 0 24 21 25 18 26 27 0 28 -18 23 195 0 25 18 29 30 ?1 29 14
 200 0 18 30 7 .01114721608976644 0 -1.51879705415537 29 30 197 0 23 31 14 -6638
95466304308e-29 0 .640531464317585 29 31 194 0 29 32 30 -593160012069429e-29 0 .
573 18 29 192 0 19 23 33 31 ?1 29 32 191 0 33 34 31 -1.45128373517413 0 -.011147
21608976596 18 33 189 0 35 29 36 32 ?1 29 34 188 0 36 37 32 -1.51879705415537 0
 -.0111472160897664 18 36 186 0 38 33 39 34 ?1 29 37 185 0 39 40 34 .64053146431
7585 0 440255100843637e-29 18 39 183 0 41 36 42 37 ?1 29 40 182 0 42 43 37 .573
 0 393098131353717e-29 18 42 180 0 44 39 45 40 ?1 29 43 179 0 45 46 40 -.0111472
160897661 0 1.45128373517413 18 45 177 0 47 42 48 43 ?1 29 46 176 0 48 49 43 -.0
111472160897661 0 1.51879705415537 18 48 174 0 50 45 51 46 ?1 29 49 173 0 51 52
 46 2166147353829655e-30 0 -.640531464317585 18 51 171 0 53 48 54 49 ?1 29 52 17
0 0 54 55 49 1930362506380055e-30 0 -.573 18 54 168 0 56 51 57 52 ?1 29 55 167 0
 57 58 52 1.45128373517413 0 .01114721608976632 18 57 165 0 59 54 60 55 ?1 29 58
 164 0 60 61 55 1.51879705415537 0 .01114721608976626 18 60 162 0 62 57 63 58 ?1
 29 61 161 0 63 64 58 -.640531464317585 0 702563007770607e-31 18 63 159 0 65 60
 66 61 ?1 29 64 158 0 66 67 61 -.573 0 702563007770607e-31 18 66 156 0 68 63 69
 64 ?1 29 67 155 0 69 70 64 -.0473831794821982 0 -.1156712336847748 18 69 153 0
 71 66 72 67 ?1 29 70 152 0 72 73 67 -.124449786838046 0 .0117153982418398 18 72
 150 0 74 69 75 70 ?1 29 73 149 0 75 76 70 579236754114076e-29 0 -.553 18 75 147
 0 77 72 78 73 ?1 29 76 146 0 78 79 73 1546276958325365e-30 0 -.57 18 78 144 0 8
0 75 81 76 ?1 29 79 143 0 81 82 76 -.1156712336847752 0 .047383179482197 18 81 1
41 0 83 78 84 79 ?1 29 82 140 0 84 85 79 .01171539824184022 0 .124449786838046 1
8 84 138 0 86 81 87 82 ?1 29 85 137 0 87 88 82 -.553 0 -3861578360760505e-30 18
 87 135 0 89 84 90 85 ?1 29 88 134 0 90 91 85 -.57 0 -390578926415687e-29 18 90
 132 0 92 87 93 88 ?1 29 91 131 0 93 94 88 .0473831794821975 0 .1156712336847752
 18 93 129 0 95 90 96 91 ?1 29 94 128 0 96 97 91 .124449786838046 0 -.0117153982
4184066 18 96 126 0 98 93 99 94 ?1 29 97 125 0 99 100 94 -1930789180380255e-30 0
 .553 18 99 123 0 101 96 102 97 ?1 29 100 122 0 102 103 97 -1685470764915465e-30
 0 .57 18 102 120 0 104 99 105 100 ?1 29 103 119 0 105 106 100 .115671233684775
 0 -.0473831794821979 18 105 117 0 107 102 108 103 ?1 29 106 116 0 108 109 103 -
.0117153982418411 0 -.124449786838046 18 108 114 0 110 105 111 106 ?1 29 109 113
 0 111 112 106 .553 0 0 18 111 111 0 113 108 114 109 ?1 29 112 110 0 114 0 109 .
57 0 0 18 114 108 0 115 111 0 112 ?1 17 115 0 116 113 117 114 71 118 0 119 -15 2
55 116 3 0 115 12 120 17 113 0 116 110 115 111 119 121 0 122 -17 117 0 116 115 7
4 69 123 124 0 0 -17 71 0 0 0 0 69 115 118 0 117 +16 118 9 0 ?71 121 0 125 0 0 1
 17 119 0 0 0 0 114 113 121 0 0 +16 121 12 0 ?119 126 118 127 0 0 1 16 126 15 0
 ?122 128 121 129 0 0 1 30 255 127 13 0 121 125 129 0 +.553 0 0 1 0 0 134 255 12
5 10 0 118 0 127 0 +130 131 134 129 16 0 126 127 132 0 +133 134 31 132 19 0 128
 129 135 0 +0 0 0 0 1 0 0 0 1 .125 136 255 133 3 4 3 2 5 FFF1 136 137 138 135 25
5 134 2 0 45 255 12 136 -.0117153982418411 0 -.124449786838046 .1228373608624216
 0 -.4011007645184125 .553 0 -.2901913722271025 .553 0 773225143185836e-30 127 2
55 2 137 4 4 128 255 2 138 0 1 16 128 18 0 ?139 140 126 132 0 0 1 134 135 22 0 1
40 132 141 0 +142 143 16 140 21 0 ?144 145 128 135 0 0 1 30 141 25 0 145 135 146
 0 +-1930789180380255e-30 0 .553 -3491481338843145e-30 0 1 136 142 3 4 3 2 5 FFF
1 147 148 149 135 143 2 0 45 12 147 -1685470764915465e-30 0 .57 .287193383749015
 0 .57 .476449969756636 0 .154580830942636 .115671233684775 0 -.0473831794821979
 127 2 148 4 4 128 2 149 0 1 16 145 24 0 ?150 151 140 141 0 0 1 134 146 28 0 151
 141 152 0 +153 154 16 151 27 0 ?155 156 145 146 0 0 1 31 152 31 0 156 146 157 0
 +0 0 0 0 1 0 0 0 1 .125 136 153 3 4 3 2 5 FFF1 158 159 160 135 154 2 0 45 12 15
8 .124449786838046 0 -.01171539824184066 .401100764518412 0 .122837360862423 .29
01913722270755 0 .553000000000008 -26631830193555e-28 0 .553 127 2 159 4 4 128 2
 160 0 1 16 156 30 0 ?161 162 151 152 0 0 1 134 157 34 0 162 152 163 0 +164 165
 16 162 33 0 ?166 167 156 157 0 0 1 30 163 37 0 167 157 168 0 +-.553 0 -38615783
60760505e-30 -1 0 -698296267768629e-29 136 164 3 4 3 2 5 FFF1 169 170 171 135 16
5 2 0 45 12 169 -.57 0 -390578926415687e-29 -.57 0 .2871933837490125 -.154580830
9426375 0 .476449969756635 .0473831794821975 0 .1156712336847752 127 2 170 4 4 1
28 2 171 0 1 16 167 36 0 ?172 173 162 163 0 0 1 134 168 40 0 173 163 174 0 +175
 176 16 173 39 0 ?177 178 167 168 0 0 1 31 174 43 0 178 168 179 0 +0 0 0 0 1 0 0
 0 1 .125 136 175 3 4 3 2 5 FFF1 180 181 182 135 176 2 0 45 12 180 .011715398241
84022 0 .124449786838046 -.1228373608624244 0 .4011007645184115 -.55300000000001
1 0 .2901913722270735 -.553 0 -4483751956486525e-30 127 2 181 4 4 128 2 182 0 1
 16 178 42 0 ?183 184 173 174 0 0 1 134 179 46 0 184 174 185 0 +186 187 16 184 4
5 0 ?188 189 178 179 0 0 1 30 185 49 0 189 179 190 0 +579236754114076e-29 0 -.55
3 1047444401652938e-29 0 -1 136 186 3 4 3 2 5 FFF1 191 192 193 135 187 2 0 45 12
 191 1546276958325365e-30 0 -.57 -.287193383749016 0 -.570000000000008 -.4764499
69756635 0 -.1545808309426395 -.1156712336847752 0 .0473831794821971 127 2 192 4
 4 128 2 193 0 1 16 189 48 0 ?194 195 184 185 0 0 1 134 190 52 0 195 185 196 0 +
197 198 16 195 51 0 ?199 124 189 190 0 0 1 31 196 55 0 124 190 200 0 +0 0 0 0 1
 0 0 0 1 .125 136 197 3 4 3 2 5 FFF1 201 202 203 135 198 2 0 45 12 201 -.1244497
86838046 0 .0117153982418398 -.4011007645184115 0 -.1228373608624258 -.290191372
227076 0 -.553000000000014 252607111232395e-29 0 -.553 127 2 202 4 4 128 2 203 0
 1 16 124 54 0 ?123 204 195 196 0 0 1 31 200 58 0 204 196 205 0 +.43899679814680
85 0 .03191755850006475 0 -1 0 0 0 1 1.0125 16 204 57 0 ?59 206 124 200 0 0 1 30
 205 61 0 206 200 207 0 +-.573 0 702563007770607e-31 1 0 0 16 206 60 0 ?208 209
 204 205 0 0 1 31 207 64 0 209 205 210 0 +.4389967981468085 0 .03191755850006475
 0 1 0 0 0 1 1.08 16 209 63 0 ?211 212 206 207 0 0 1 30 210 67 0 212 207 213 0 +
1.51879705415537 0 .0111472160897663 1 0 -1284726852533206e-31 16 212 66 0 ?214
 215 209 210 0 0 1 31 213 70 0 215 210 216 0 +-.0319175585000646 0 .438996798146
8085 0 -1 0 0 0 1 1.0125 16 215 69 0 ?47 217 212 213 0 0 1 30 216 73 0 217 213 2
18 0 +1930362506380055e-30 0 -.573 -349148133884313e-29 0 1 16 217 72 0 ?219 220
 215 216 0 0 1 31 218 76 0 220 216 221 0 +-.0319175585000646 0 .4389967981468085
 0 1 0 0 0 1 1.08 16 220 75 0 ?222 223 217 218 0 0 1 30 221 79 0 223 218 224 0 +
-.01114721608976608 0 1.51879705415537 205556296405313e-30 0 1 16 223 78 0 ?225
 226 220 221 0 0 1 31 224 82 0 226 221 227 0 +-.4389967981468085 0 -.03191755850
006455 0 -1 0 0 0 1 1.0125 16 226 81 0 ?35 228 223 224 0 0 1 30 227 85 0 228 224
 229 0 +.573 0 393098131353717e-29 -1 0 -698296267768627e-29 16 228 84 0 ?230 23
1 226 227 0 0 1 31 229 88 0 231 227 232 0 +-.4389967981468085 0 -.03191755850006
455 0 1 0 0 0 1 1.08 16 231 87 0 ?233 234 228 229 0 0 1 30 232 91 0 234 229 235
 0 +-1.51879705415537 0 -.01114721608976596 -1 0 2569453705066415e-31 16 234 90
 0 ?236 20 231 232 0 0 1 31 235 94 0 20 232 237 0 +.03191755850006465 0 -.438996
7981468085 0 -1 0 0 0 1 1.0125 16 20 93 0 ?17 238 234 235 0 0 1 30 237 97 0 238
 235 239 0 +-593160012069429e-29 0 .573 104744440165294e-28 0 -1 16 238 96 0 ?24
0 27 20 237 0 0 1 31 239 100 0 27 237 13 0 +.03191755850006465 0 -.4389967981468
085 0 1 0 0 0 1 1.08 16 27 99 0 ?26 16 238 239 0 0 1 30 13 103 0 16 239 6 0 +.01
1147216089766 0 -1.51879705415537 -30833444460797e-29 0 -1 16 16 102 0 ?28 9 27
 13 0 0 1 17 28 0 0 0 0 18 21 16 0 0 +17 21 0 24 19 22 10 28 16 0 0 -15 24 7 0 1
9 12 241 17 19 0 24 25 21 29 17 20 0 240 -17 25 0 24 22 19 23 240 238 0 26 -17 2
40 0 0 0 0 29 25 238 0 0 +17 26 0 0 0 0 23 22 27 0 0 +14 255 12 1 242 ?0 0 116 4
 5 +0 0 0 0 4 15 241 8 0 15 12 0 17 15 0 241 15 15 0 243 9 0 0 +17 243 0 0 0 0 0
 15 9 0 0 -81 255 1 242 289 244 12 245 0 0 0 246 80 255 1 244 247 248 9000 1 1 1
 1 1 1 1 1 0 FFFFTFTFFFFFFF1 81 1 245 251 249 12 0 242 0 0 250 82 255 1 246 -685
375278 80 1 249 0 251 8001 0 0 0 0 3 5 0 0 0 FFFFTFTFFFFFFF2 83 255 3 250 .79215
6862745098 .819607843137255 .933333333333333 79 255 15 251 SDL/TYSA_COLOUR79 14
 248 SWEntUnchanged17 236 0 0 0 0 36 252 234 0 0 +17 252 0 253 44 38 33 236 234
 0 0 -15 253 6 0 44 12 24 17 44 0 253 41 252 42 35 226 0 230 -17 38 0 253 252 41
 36 233 231 0 236 -17 41 0 253 38 44 39 230 228 0 233 -17 233 0 0 0 0 39 38 231
 0 0 +17 230 0 0 0 0 42 41 228 0 0 +17 35 0 0 0 0 33 44 226 0 252 +17 225 0 0 0
 0 48 254 223 0 0 +17 254 0 255 56 50 45 225 223 0 0 -15 255 5 0 56 12 253 17 56
 0 255 53 254 54 47 215 0 219 -17 50 0 255 254 53 48 222 220 0 225 -17 53 0 255
 50 56 51 219 217 0 222 -17 222 0 0 0 0 51 50 220 0 0 +17 219 0 0 0 0 54 53 217
 0 0 +17 47 0 0 0 0 45 56 215 0 254 +17 214 0 0 0 0 60 256 212 0 0 +17 256 0 120
 68 62 57 214 212 0 0 -15 120 4 0 68 12 255 17 68 0 120 65 256 66 59 204 0 208 -
17 62 0 120 256 65 60 211 209 0 214 -17 65 0 120 62 68 63 208 206 0 211 -17 211
 0 0 0 0 63 62 209 0 0 +17 208 0 0 0 0 66 65 206 0 0 +17 59 0 0 0 0 57 68 204 0
 256 +17 123 0 0 0 0 72 117 124 0 0 +17 199 0 0 0 0 75 74 195 0 0 +17 74 0 116 1
17 77 72 199 195 0 123 -17 77 0 116 74 80 75 194 189 0 199 -17 80 0 116 77 83 78
 188 184 0 194 -17 194 0 0 0 0 78 77 189 0 0 +17 83 0 116 80 86 81 183 178 0 188
 -17 188 0 0 0 0 81 80 184 0 0 +17 86 0 116 83 89 84 177 173 0 183 -17 183 0 0 0
 0 84 83 178 0 0 +17 89 0 116 86 92 87 172 167 0 177 -17 177 0 0 0 0 87 86 173 0
 0 +17 92 0 116 89 95 90 166 162 0 172 -17 172 0 0 0 0 90 89 167 0 0 +17 95 0 11
6 92 98 93 161 156 0 166 -17 166 0 0 0 0 93 92 162 0 0 +17 98 0 116 95 101 96 15
5 151 0 161 -17 161 0 0 0 0 96 95 156 0 0 +17 101 0 116 98 104 99 150 145 0 155
 -17 155 0 0 0 0 99 98 151 0 0 +17 104 0 116 101 107 102 144 140 0 150 -17 150 0
 0 0 0 102 101 145 0 0 +17 107 0 116 104 110 105 139 128 0 144 -17 144 0 0 0 0 1
05 104 140 0 0 +17 110 0 116 107 113 108 122 126 0 139 -17 139 0 0 0 0 108 107 1
28 0 0 +17 122 0 0 0 0 111 110 126 0 0 +136 130 3 4 3 2 5 FFF1 257 258 259 135 1
31 2 0 45 12 257 .57 0 -2034461614749885e-31 .57 0 -.2871933837490175 .154580830
9426345 0 -.476449969756636 -.0473831794821983 0 -.1156712336847748 127 2 258 4
 4 128 2 259 0 1 74 4 CI16 index_map_offset0 0 1 dCCZ20 11 2 0 0 245 242 0 0 0 0
 0 0 0 0 0 0 0 0 0 0 0 0 0 0 1 0 
