**ABCDEFGHIJKLMNOPQRSTUVWXYZabcdefghijklmnopqrstuvwxyz**************************
**PARASOLID !"#$%&'()*+,-./:;<=>?@[\]^_`{|}~0123456789**************************
**PART1;
MC=AMD64;
MC_MODEL=Intel64 Family 6 Model 37 Stepping 2, GenuineIntel;
MC_ID=unknown;
OS=Windows_NT;
OS_RELEASE=unknown;
FRU=Parasolid Version 25.1, build 198,  6-19-2013;
APPL=SolidWorks 2014-2013262;
SITE=;
USER=unknown;
FORMAT=text;
GUISE=transmit;
KEY=1 - 2D;
FILE=1 - 2D.x_t;
DATE=Sat Oct 28 21:05:41 2017;
**PART2;
SCH=SCH_2501198_25001;
USFLD_SIZE=0;
**PART3;
**END_OF_HEADER*****************************************************************
T51 : TRANSMIT FILE created by modeller version 250119823 SCH_2501198_25001_1300
6189 0 12 29 CCCCCCCCCCCCCDI5 owner1040 0 CCCCCCCCCA16 index_map_offset0 0 1 dA9
 index_map82 0 A17 node_id_index_map82 0 A20 schema_embedding_map82 0 A5 child12
 0 A14 lowest_node_id0 0 1 dZ1 421 0 2 0 0 0 0 1e3 1e-8 0 3 0 1 0 3 1 4 5 6 7 8
 9 10 0 0 0 0 0 0 70 11 CI9 list_type0 0 1 uI10 notransmit0 0 1 lCCCDCCDI12 fing
er_index0 0 1 dI12 finger_block1012 0 CZ2 0 4 T1 0 0 2 20 1 11 11 13 255 4 305 0
 1 0 12 0 0 8 12 50 255 5 2 0 12 0 0 0 +0 0 0 0 1 0 0 0 1 31 255 6 158 0 9 13 0
 0 +0 0 0 0 1 0 0 0 1 1.16 29 255 7 303 0 10 14 0 .993626816594387 0 -.563550107
517499 19 8 CCCCCCCA5 owner12 0 Z8 304 0 1 0 0 4 V0 16 255 9 157 0 ?15 0 16 6 0
 0 1 18 255 10 301 0 17 0 18 7 ?1 17 255 17 0 0 0 0 10 19 20 0 21 +18 18 298 0 2
2 10 23 14 ?1 17 22 0 24 21 25 18 26 27 0 28 -18 23 295 0 25 18 29 30 ?1 29 14 3
00 0 18 30 7 .992332721368874 0 -.568379736648945 29 30 297 0 23 31 14 .98925041
6412494 0 -.572316663896919 29 31 294 0 29 32 30 .289883541452733 0 -.5096991740
60433 18 29 292 0 33 23 34 31 ?1 29 32 291 0 34 35 31 .286346974856407 0 -.50596
7509044931 18 34 289 0 36 29 37 32 ?1 29 35 288 0 37 38 32 .290677101875329 0 -.
503467509044931 18 37 286 0 19 34 39 35 ?1 29 38 285 0 39 40 35 .008764698881584
71 0 -1.14228111881095 18 39 283 0 41 37 42 38 ?1 29 40 282 0 42 43 38 .00393506
97501393 0 -1.143575214036462 18 42 280 0 44 39 45 40 ?1 29 43 279 0 45 46 40 -.
00101556173764783 0 -1.142874323266014 18 45 277 0 47 42 48 43 ?1 29 46 276 0 48
 49 43 -.296470662297916 0 -.505896098067282 18 48 274 0 50 45 51 46 ?1 29 49 27
3 0 51 52 46 -.295007228894241 0 -.500967509044937 18 51 271 0 53 48 54 49 ?1 29
 52 270 0 54 55 49 -.2906771018753185 0 -.503467509044937 18 54 268 0 56 51 57 5
2 ?1 29 55 267 0 57 58 52 -.984862117712802 0 -.578731011293446 18 57 265 0 59 5
4 60 55 ?1 29 58 264 0 60 61 55 -.988397651618735 0 -.575195477387513 18 60 262
 0 62 57 63 58 ?1 29 61 261 0 63 64 58 -.990265978150142 0 -.57055765936909 18 6
3 259 0 65 60 66 61 ?1 29 64 258 0 66 67 61 -.586354203750648 0 .003803075993152
825 18 66 256 0 68 63 69 64 ?1 29 67 255 0 69 70 64 -.581354203750647 0 .0049999
9999999593 18 69 253 0 71 66 72 67 ?1 29 70 252 0 72 73 67 -.581354203750647 0 -
4059574707306785e-30 18 72 250 0 74 69 75 70 ?1 29 73 249 0 75 76 70 -.993626816
594383 0 .563550107517506 18 75 247 0 77 72 78 73 ?1 29 76 246 0 78 79 73 -.9923
3272136887 0 .568379736648951 18 78 244 0 80 75 81 76 ?1 29 79 243 0 81 82 76 -.
98925041641249 0 .572316663896926 18 81 241 0 83 78 84 79 ?1 29 82 240 0 84 85 7
9 -.2898835414527295 0 .509699174060435 18 84 238 0 86 81 87 82 ?1 29 85 237 0 8
7 88 82 -.2863469748564035 0 .505967509044933 18 87 235 0 89 84 90 85 ?1 29 88 2
34 0 90 91 85 -.2906771018753255 0 .503467509044933 18 90 232 0 92 87 93 88 ?1 2
9 91 231 0 93 94 88 -.00876469888157677 0 1.14228111881095 18 93 229 0 95 90 96
 91 ?1 29 94 228 0 96 97 91 -.003935069750131415 0 1.143575214036462 18 96 226 0
 98 93 99 94 ?1 29 97 225 0 99 100 94 .001015561737655712 0 1.142874323266014 18
 99 223 0 101 96 102 97 ?1 29 100 222 0 102 103 97 .2964706622979195 0 .50589609
806728 18 102 220 0 104 99 105 100 ?1 29 103 219 0 105 106 100 .2950072288942445
 0 .500967509044935 18 105 217 0 107 102 108 103 ?1 29 106 216 0 108 109 103 .29
0677101875322 0 .503467509044935 18 108 214 0 110 105 111 106 ?1 29 109 213 0 11
1 112 106 -.28672613998102 0 -.493624242305163 18 111 211 0 113 108 114 109 ?1 2
9 112 210 0 114 115 109 -.29047613998102 0 -.500119432833546 18 114 208 0 116 11
1 117 112 ?1 29 115 207 0 117 118 112 -.0949761399810199 0 -.1615034999538305 18
 117 205 0 119 114 120 115 ?1 29 118 204 0 120 121 115 -.0987261399810199 0 -.16
7998690482214 18 120 202 0 122 117 123 118 ?1 29 121 201 0 123 124 118 -.2841280
63769626 0 .495124242305233 18 123 199 0 125 120 126 121 ?1 29 124 198 0 126 127
 121 -.287878063769626 0 .501619432833616 18 126 196 0 128 123 129 124 ?1 29 127
 195 0 129 130 124 -.0923780637696262 0 .1630034999539005 18 129 193 0 131 126 1
32 127 ?1 29 130 192 0 132 133 127 -.0961280637696262 0 .169498690482284 18 132
 190 0 134 129 135 130 ?1 29 133 189 0 135 136 130 .984862117712806 0 .578731011
293439 18 135 187 0 137 132 138 133 ?1 29 136 186 0 138 139 133 .988397651618739
 0 .575195477387506 18 138 184 0 140 135 141 136 ?1 29 139 183 0 141 142 136 .99
0265978150146 0 .570557659369083 18 141 181 0 143 138 144 139 ?1 29 142 180 0 14
4 145 139 .586354203750648 0 -.00380307599315692 18 144 178 0 146 141 147 142 ?1
 29 145 177 0 147 148 142 .581354203750647 0 -.005 18 147 175 0 149 144 150 145
 ?1 29 148 174 0 150 151 145 .581354203750647 0 0 18 150 172 0 152 147 153 148 ?
1 29 151 171 0 153 154 148 .570854203750647 0 -.0015 18 153 169 0 155 150 156 15
1 ?1 29 154 168 0 156 157 151 .578354203750647 0 -.0015 18 156 166 0 158 153 159
 154 ?1 29 157 165 0 159 160 154 .1873542037506465 0 -.001499999999999974 18 159
 163 0 161 156 162 157 ?1 29 160 162 0 162 0 157 .1948542037506465 0 -.001499999
999999974 18 162 160 0 163 159 0 160 ?1 17 163 0 164 161 165 162 155 166 0 167 -
15 255 164 3 0 163 12 168 17 161 0 164 158 163 159 167 169 0 170 -17 165 0 164 1
63 158 153 171 172 0 0 -17 155 0 0 0 0 153 163 166 0 165 +16 166 13 0 ?155 169 0
 173 0 0 1 17 167 0 0 0 0 162 161 169 0 0 +16 169 16 0 ?167 174 166 175 0 0 1 16
 174 19 0 ?170 172 169 176 0 0 1 30 255 175 17 0 169 173 176 0 +.194854203750646
5 0 -.001499999999999974 1 0 0 31 173 14 0 166 0 175 0 +.3828542037506465 0 -.00
1499999999999978 0 -1 0 0 0 1 .188 31 176 20 0 174 175 177 0 +.3828542037506465
 0 -.001499999999999978 0 1 0 0 0 1 .1955 30 177 23 0 172 176 178 0 +.5783542037
50647 0 -.0015 1 0 0 16 172 22 0 ?171 179 174 177 0 0 1 134 255 178 26 0 179 177
 180 0 +181 182 16 179 25 0 ?137 183 172 178 0 0 1 30 180 29 0 183 178 184 0 +.5
81354203750647 0 0 0 0 1 136 255 181 3 4 3 2 5 FFF1 185 186 187 135 255 182 2 0
 45 255 12 185 .581354203750647 0 0 .736102236032399 0 .0420749774002114 1.00462
2760042348 0 .217312967341405 .984862117712806 0 .57873101129344 127 255 2 186 4
 4 128 255 2 187 0 1 16 183 28 0 ?188 189 179 180 0 0 1 30 184 32 0 189 180 190
 0 +.586354203750648 0 -.00380307599315692 -.972522907792361 0 -.232807203108259
5 16 189 31 0 ?191 192 183 184 0 0 1 134 190 35 0 192 184 193 0 +194 195 16 192
 34 0 ?196 197 189 190 0 0 1 30 193 38 0 197 190 198 0 +.990265978150146 0 .5705
57659369083 .3736653062816755 0 -.927563603685171 136 194 3 31 3 29 6 FFF1 199 2
00 201 135 195 2 0 45 93 199 .990265978150146 0 .570557659369083 .99038405494563
7 0 .567792053597013 .990587950106453 0 .562242747656058 .990859543768658 0 .551
273230758636 .990950343536342 0 .537710229421565 .990668839674684 0 .52170100443
4339 .989784925688344 0 .500698903407859 .987748024544847 0 .475092758675732 .98
3882459012746 0 .4453906690101765 .978665708482938 0 .4167067588190925 .97000232
08681 0 .3798089773667635 .956147575680736 0 .3361944869078135 .935248818895374
 0 .2878077916356775 .910647486085147 0 .243306883866997 .882914996592975 0 .202
6229614606855 .852622245602831 0 .1656835228153395 .820338528225065 0 .132413132
6686012 .786630988281351 0 .1027343916246722 .752064448583123 0 .076568830912957
8 .717201408417929 0 .0538376058892127 .688368618876147 0 .03769123170677925 .66
5712977560237 0 .0264127599282584 .64899587661557 0 .0187634898865817 .632622628
698859 0 .01191414276053662 .619321924250939 0 .00686488100747715 .6089222770647
26 0 .003215976684014105 .601250181250711 0 .000673004413470263 .594974646688566
 0 -.001284432546764454 .590019109657932 0 -.002756768610792255 .58758074419026
 0 -.00345700939532405 .586354203750648 0 -.00380307599315692 127 29 200 4 1 1 1
 1 1 1 1 1 1 1 1 1 1 1 1 1 1 1 1 1 1 1 1 1 1 1 1 4 128 29 201 .00780124968836403
 .0154921307329061 .0231830117774483 .03856477386653245 .0539465359556166 .06932
82980447007 .100091822222869 .1308553464010374 .1616188705792055 .19238239475737
4 .2539094431137105 .315436491470047 .376963539826384 .4384905881827205 .5000176
36539057 .561544684895394 .623071733251731 .684598781608067 .746125829964404 .80
765287832074 .838416402498909 .869179926677077 .899943450855245 .930706975033414
 .946088737122498 .961470499211582 .976852261300666 .984543142345208 .9922340233
8975 16 197 37 0 ?202 203 192 193 0 0 1 30 198 41 0 203 193 204 0 +.984862117712
806 0 .578731011293439 .707106781186525 0 -.70710678118657 16 203 40 0 ?205 206
 197 198 0 0 1 31 204 44 0 206 198 207 0 +-.190128063769626 0 .3323114663937585
 0 -1 0 0 0 1 .188 16 206 43 0 ?125 208 203 204 0 0 1 30 207 47 0 208 204 209 0
 +-.0961280637696262 0 .169498690482284 -.5 0 .866025403784438 16 208 46 0 ?210
 211 206 207 0 0 1 31 209 50 0 211 207 212 0 +-.190128063769626 0 .3323114663937
585 0 1 0 0 0 1 .1955 16 211 49 0 ?213 214 208 209 0 0 1 30 212 53 0 214 209 215
 0 +-.287878063769626 0 .501619432833616 -.5 0 .866025403784438 16 214 52 0 ?216
 217 211 212 0 0 1 31 215 56 0 217 212 218 0 +-.19272613998102 0 -.3308114663936
885 0 -1 0 0 0 1 .188 16 217 55 0 ?113 219 214 215 0 0 1 30 218 59 0 219 215 220
 0 +-.0987261399810199 0 -.167998690482214 -.5 0 -.866025403784438 16 219 58 0 ?
221 222 217 218 0 0 1 31 220 62 0 222 218 223 0 +-.19272613998102 0 -.3308114663
936885 0 1 0 0 0 1 .1955 16 222 61 0 ?224 225 219 220 0 0 1 30 223 65 0 225 220
 226 0 +-.29047613998102 0 -.500119432833546 -.5 0 -.866025403784441 16 225 64 0
 ?227 228 222 223 0 0 1 134 226 68 0 228 223 229 0 +230 231 16 228 67 0 ?95 232
 225 226 0 0 1 30 229 71 0 232 226 233 0 +.290677101875322 0 .503467509044935 -.
866025403784444 0 .49999999999999 136 230 3 4 3 2 5 FFF1 234 235 236 135 231 2 0
 45 12 234 .2906771018753235 0 .503467509044935 .33161311872396 0 .6585207248866
92 .31411282973174 0 .978685315087415 -.00876469888157497 0 1.14228111881095 127
 2 235 4 4 128 2 236 0 1 16 232 70 0 ?237 238 228 229 0 0 1 30 233 74 0 238 229
 239 0 +.2964706622979195 0 .50589609806728 -.2846445018204235 0 -.9586331454646
26 16 238 73 0 ?240 241 232 233 0 0 1 134 239 77 0 241 233 242 0 +243 244 16 241
 76 0 ?245 246 238 239 0 0 1 30 242 80 0 246 239 247 0 +.001015561737655712 0 1.
142874323266014 .990126297558035 0 -.1401781540897738 136 243 3 31 3 29 6 FFF1 2
48 249 250 135 244 2 0 45 93 248 .001015561737655712 0 1.142874323266014 .003469
68499086686 0 1.141593777884472 .00837747248951426 0 1.13899570330297 .018013149
621027 0 1.133746151865234 .0298044532143344 0 1.12704328610217 .043528096817343
5 0 1.1187948841131 .0612744928459529 0 1.107528341632928 .0824316141052078 0 1.
0929612611316 .1062215955350112 0 1.074762538348028 .128454215175457 0 1.0559027
44768466 .1560769374490415 0 1.02995114028502 .1869208215659245 0 .9961453337603
29 .2183755504840895 0 .953853131840625 .2446138006981215 0 .910297298775672 .26
59808662814965 0 .86593829716211 .282824983054831 0 .821234285931457 .2954961274
268425 0 .776640571480345 .3043449011513685 0 .732609615068046 .309721671582863
 0 .6895913332126 .31197596982997 0 .648033442264512 .3115427452800755 0 .614990
326968142 .309982367698186 0 .589730730160275 .3082482794023515 0 .5714286610437
26 .305993364054489 0 .553824338842371 .3037158007790355 0 .539780960025714 .301
676021026027 0 .528950149210327 .30004225170643 0 .521034433199849 .298599674559
2275 0 .514620942366588 .2973969864782665 0 .50959315337665 .296784230052601 0 .
50713134654567 .2964706622979195 0 .50589609806728 127 29 249 4 1 1 1 1 1 1 1 1
 1 1 1 1 1 1 1 1 1 1 1 1 1 1 1 1 1 1 1 4 128 29 250 .00780124968836403 .01549213
07329061 .0231830117774483 .03856477386653245 .0539465359556166 .069328298044700
7 .100091822222869 .1308553464010374 .1616188705792055 .192382394757374 .2539094
431137105 .315436491470047 .376963539826384 .4384905881827205 .500017636539057 .
561544684895394 .623071733251731 .684598781608067 .746125829964404 .807652878320
74 .838416402498909 .869179926677077 .899943450855245 .930706975033414 .94608873
7122498 .961470499211582 .976852261300666 .984543142345208 .99223402338975 16 24
6 79 0 ?251 252 241 242 0 0 1 30 247 83 0 252 242 253 0 +-.00876469888157677 0 1
.14228111881095 .965925826289074 0 .2588190451024995 16 252 82 0 ?254 255 246 24
7 0 0 1 134 253 86 0 255 247 256 0 +257 258 16 255 85 0 ?77 259 252 253 0 0 1 30
 256 89 0 259 253 260 0 +-.2906771018753255 0 .503467509044933 -.866025403784432
 0 -.500000000000012 136 257 3 4 3 2 5 FFF1 261 262 263 135 258 2 0 45 12 261 -.
2906771018753235 0 .503467509044935 -.404489117308439 0 .61644574748648 -.690509
93031061 0 .761372347746011 -.993626816594381 0 .56355010751751 127 2 262 4 4 12
8 2 263 0 1 16 259 88 0 ?264 265 255 256 0 0 1 30 260 92 0 265 256 266 0 +-.2898
835414527295 0 .509699174060435 .687878405971943 0 -.725825942356361 16 265 91 0
 ?267 268 259 260 0 0 1 134 266 95 0 268 260 269 0 +270 271 16 268 94 0 ?272 273
 265 266 0 0 1 30 269 98 0 273 266 274 0 +-.98925041641249 0 .572316663896926 .6
16460991276324 0 .787385449595439 136 270 3 31 3 29 6 FFF1 275 276 277 135 271 2
 0 45 93 275 -.98925041641249 0 .572316663896926 -.986914369954771 0 .5738017242
87454 -.982210477616939 0 .576752955646907 -.972846394147632 0 .582472921106595
 -.961145890322007 0 .589333056680602 -.94714074285734 0 .597093879678756 -.9285
10432842391 0 .606829438225065 -.90531641043964 0 .617868502455863 -.87766086347
7735 0 .629371869337848 -.850211493307481 0 .63919598594937 -.813925383419059 0
 .650142162918253 -.769226754114812 0 .659950846852511 -.716873268411285 0 .6660
45340204943 -.666033685387026 0 .666990414908672 -.616934130311479 0 .6633153357
01422 -.569797262548001 0 .655550763116114 -.524842400798223 0 .644227438811741
 -.482286087129984 0 .629875223443371 -.442342777000261 0 .613022502299639 -.405
2254385879605 0 .594195836375297 -.3768258735960725 0 .57729909526136 -.35573060
98620525 0 .563317970232015 -.34074759721322 0 .552665171157143 -.32662926464437
1 0 .541910196081833 -.3156061234719045 0 .532916079018235 -.3072462560387 0 .52
5734172526311 -.301207929544282 0 .520361428786377 -.29637497212934 0 .515905374
91335 -.2926221231796665 0 .51234992198744 -.2907965141376605 0 .510588355940992
 -.2898835414527295 0 .509699174060435 127 29 276 4 1 1 1 1 1 1 1 1 1 1 1 1 1 1
 1 1 1 1 1 1 1 1 1 1 1 1 1 4 128 29 277 .00780124968836403 .0154921307329061 .02
31830117774483 .03856477386653245 .0539465359556166 .0693282980447007 .100091822
222869 .1308553464010374 .1616188705792055 .192382394757374 .2539094431137105 .3
15436491470047 .376963539826384 .4384905881827205 .500017636539057 .561544684895
394 .623071733251731 .684598781608067 .746125829964404 .80765287832074 .83841640
2498909 .869179926677077 .899943450855245 .930706975033414 .946088737122498 .961
470499211582 .976852261300666 .984543142345208 .99223402338975 16 273 97 0 ?278
 279 268 269 0 0 1 30 274 101 0 279 269 280 0 +-.993626816594383 0 .563550107517
506 .2588190451025935 0 .965925826289049 16 279 100 0 ?281 282 273 274 0 0 1 134
 280 104 0 282 274 283 0 +284 285 16 282 103 0 ?59 286 279 280 0 0 1 30 283 107
 0 286 280 287 0 +-.581354203750647 0 -4059574707306785e-30 0 0 -1 136 284 3 4 3
 2 5 FFF1 288 289 290 135 285 2 0 45 12 288 -.581354203750647 0 -711953564794086
e-31 -.736102236032398 0 -.04207497740021255 -1.00462276004235 0 -.2173129673414
05 -.984862117712806 0 -.57873101129344 127 2 289 4 4 128 2 290 0 1 16 286 106 0
 ?291 292 282 283 0 0 1 30 287 110 0 292 283 293 0 +-.586354203750648 0 .0038030
75993152825 .97252290779236 0 .232807203108266 16 292 109 0 ?294 295 286 287 0 0
 1 134 293 113 0 295 287 296 0 +297 298 16 295 112 0 ?299 300 292 293 0 0 1 30 2
96 116 0 300 293 301 0 +-.990265978150142 0 -.57055765936909 -.3736653062816755
 0 .927563603685171 136 297 3 31 3 29 6 FFF1 302 303 304 135 298 2 0 45 93 302 -
.990265978150142 0 -.57055765936909 -.990384054945633 0 -.56779205359702 -.99058
795010645 0 -.562242747656065 -.990859543768654 0 -.551273230758643 -.9909503435
36338 0 -.537710229421572 -.99066883967468 0 -.521701004434346 -.98978492568834
 0 -.500698903407866 -.987748024544844 0 -.475092758675738 -.983882459012743 0 -
.4453906690101835 -.978665708482935 0 -.4167067588190995 -.970002320868097 0 -.3
7980897736677 -.956147575680734 0 -.33619448690782 -.935248818895372 0 -.2878077
91635684 -.910647486085145 0 -.2433068838670035 -.882914996592973 0 -.2026229614
606915 -.85262224560283 0 -.1656835228153455 -.820338528225064 0 -.1324131326686
07 -.786630988281351 0 -.1027343916246778 -.752064448583122 0 -.0765688309129631
 -.717201408417929 0 -.0538376058892177 -.688368618876146 0 -.03769123170678405
 -.665712977560237 0 -.02641275992826305 -.64899587661557 0 -.0187634898865862 -
.632622628698859 0 -.01191414276054104 -.619321924250939 0 -.00686488100748147 -
.608922277064726 0 -.00321597668401836 -.601250181250711 0 -.000673004413474461
 -.594974646688566 0 .0012844325467603 -.590019109657932 0 .002756768610788135 -
.58758074419026 0 .003457009395319945 -.586354203750648 0 .003803075993152825 12
7 29 303 4 1 1 1 1 1 1 1 1 1 1 1 1 1 1 1 1 1 1 1 1 1 1 1 1 1 1 1 4 128 29 304 .0
0780124968836403 .0154921307329061 .0231830117774483 .03856477386653245 .0539465
359556166 .0693282980447007 .100091822222869 .1308553464010374 .1616188705792055
 .192382394757374 .2539094431137105 .315436491470047 .376963539826384 .438490588
1827205 .500017636539057 .561544684895394 .623071733251731 .684598781608067 .746
125829964404 .80765287832074 .838416402498909 .869179926677077 .899943450855245
 .930706975033414 .946088737122498 .961470499211582 .976852261300666 .9845431423
45208 .99223402338975 16 300 115 0 ?305 306 295 296 0 0 1 30 301 119 0 306 296 3
07 0 +-.984862117712802 0 -.578731011293446 -.707106781186525 0 .70710678118657
 16 306 118 0 ?308 309 300 301 0 0 1 134 307 122 0 309 301 310 0 +311 312 16 309
 121 0 ?41 313 306 307 0 0 1 30 310 125 0 313 307 314 0 +-.2906771018753185 0 -.
503467509044937 .866025403784444 0 -.49999999999999 136 311 3 4 3 2 5 FFF1 315 3
16 317 135 312 2 0 45 12 315 -.2906771018753235 0 -.503467509044935 -.3316131187
23959 0 -.658520724886692 -.3141128297317415 0 -.978685315087417 .00876469888157
442 0 -1.14228111881095 127 2 316 4 4 128 2 317 0 1 16 313 124 0 ?318 319 309 31
0 0 0 1 30 314 128 0 319 310 320 0 +-.296470662297916 0 -.505896098067282 .28464
4501820414 0 .958633145464629 16 319 127 0 ?321 322 313 314 0 0 1 134 320 131 0
 322 314 323 0 +324 325 16 322 130 0 ?326 327 319 320 0 0 1 30 323 134 0 327 320
 328 0 +-.00101556173764783 0 -1.142874323266014 -.990126297558042 0 .1401781540
897302 136 324 3 31 3 29 6 FFF1 329 330 331 135 325 2 0 45 93 329 -.001015561737
64783 0 -1.142874323266014 -.00346968499085898 0 -1.141593777884472 -.0083774724
8950643 0 -1.13899570330297 -.0180131496210192 0 -1.133746151865234 -.0298044532
143266 0 -1.12704328610217 -.04352809681733575 0 -1.1187948841131 -.061274492845
9452 0 -1.107528341632928 -.0824316141052003 0 -1.0929612611316 -.10622159553500
38 0 -1.07476253834803 -.1284542151754498 0 -1.055902744768468 -.156076937449034
5 0 -1.029951140285022 -.1869208215659175 0 -.99614533376033 -.218375550484083 0
 -.953853131840626 -.244613800698115 0 -.910297298775674 -.2659808662814905 0 -.
865938297162112 -.282824983054825 0 -.821234285931459 -.2954961274268375 0 -.776
640571480347 -.3043449011513635 0 -.732609615068048 -.309721671582858 0 -.689591
333212602 -.311975969829966 0 -.648033442264514 -.3115427452800715 0 -.614990326
968144 -.3099823676981815 0 -.589730730160277 -.3082482794023475 0 -.57142866104
3729 -.305993364054485 0 -.553824338842374 -.303715800779032 0 -.539780960025716
 -.3016760210260235 0 -.528950149210329 -.3000422517064265 0 -.521034433199851 -
.298599674559224 0 -.51462094236659 -.297396986478263 0 -.509593153376652 -.2967
842300525975 0 -.507131346545672 -.296470662297916 0 -.505896098067282 127 29 33
0 4 1 1 1 1 1 1 1 1 1 1 1 1 1 1 1 1 1 1 1 1 1 1 1 1 1 1 1 4 128 29 331 .00780124
968836403 .0154921307329061 .0231830117774483 .03856477386653245 .05394653595561
66 .0693282980447007 .100091822222869 .1308553464010374 .1616188705792055 .19238
2394757374 .2539094431137105 .315436491470047 .376963539826384 .4384905881827205
 .500017636539057 .561544684895394 .623071733251731 .684598781608067 .7461258299
64404 .80765287832074 .838416402498909 .869179926677077 .899943450855245 .930706
975033414 .946088737122498 .961470499211582 .976852261300666 .984543142345208 .9
9223402338975 16 327 133 0 ?332 333 322 323 0 0 1 30 328 137 0 333 323 334 0 +.0
0876469888158471 0 -1.14228111881095 -.965925826289075 0 -.2588190451024965 16 3
33 136 0 ?335 20 327 328 0 0 1 134 334 140 0 20 328 336 0 +337 338 16 20 139 0 ?
17 339 333 334 0 0 1 30 336 143 0 339 334 340 0 +.290677101875329 0 -.5034675090
44931 .866025403784432 0 .500000000000012 136 337 3 4 3 2 5 FFF1 341 342 343 135
 338 2 0 45 12 341 .290677101875323 0 -.503467509044935 .4044891173084395 0 -.61
6445747486479 .690509930310611 0 -.761372347746014 .993626816594381 0 -.56355010
7517511 127 2 342 4 4 128 2 343 0 1 16 339 142 0 ?344 345 20 336 0 0 1 30 340 14
6 0 345 336 346 0 +.289883541452733 0 -.509699174060433 -.687878405971949 0 .725
825942356355 16 345 145 0 ?347 348 339 340 0 0 1 134 346 149 0 348 340 349 0 +35
0 351 16 348 148 0 ?352 27 345 346 0 0 1 30 349 152 0 27 346 13 0 +.989250416412
494 0 -.572316663896919 -.616460991276373 0 -.787385449595401 136 350 3 31 3 29
 6 FFF1 353 354 355 135 351 2 0 45 93 353 .989250416412494 0 -.572316663896919 .
986914369954774 0 -.573801724287447 .982210477616943 0 -.5767529556469 .97284639
4147635 0 -.582472921106588 .961145890322011 0 -.589333056680595 .94714074285734
5 0 -.597093879678749 .928510432842395 0 -.606829438225058 .905316410439644 0 -.
617868502455857 .87766086347774 0 -.629371869337842 .850211493307486 0 -.6391959
85949364 .813925383419063 0 -.650142162918247 .769226754114817 0 -.6599508468525
06 .71687326841129 0 -.666045340204938 .666033685387031 0 -.666990414908667 .616
934130311484 0 -.663315335701417 .569797262548006 0 -.65555076311611 .5248424007
98228 0 -.644227438811737 .482286087129988 0 -.629875223443367 .442342777000265
 0 -.613022502299636 .4052254385879645 0 -.594195836375294 .3768258735960765 0 -
.577299095261357 .3557306098620565 0 -.563317970232012 .3407475972132235 0 -.552
66517115714 .326629264644375 0 -.54191019608183 .315606123471908 0 -.53291607901
8232 .3072462560387035 0 -.525734172526308 .3012079295442855 0 -.520361428786375
 .2963749721293435 0 -.515905374913348 .2926221231796705 0 -.512349921987438 .29
0796514137664 0 -.51058835594099 .289883541452733 0 -.509699174060433 127 29 354
 4 1 1 1 1 1 1 1 1 1 1 1 1 1 1 1 1 1 1 1 1 1 1 1 1 1 1 1 4 128 29 355 .007801249
68836403 .0154921307329061 .0231830117774483 .03856477386653245 .053946535955616
6 .0693282980447007 .100091822222869 .1308553464010374 .1616188705792055 .192382
394757374 .2539094431137105 .315436491470047 .376963539826384 .4384905881827205
 .500017636539057 .561544684895394 .623071733251731 .684598781608067 .7461258299
64404 .80765287832074 .838416402498909 .869179926677077 .899943450855245 .930706
975033414 .946088737122498 .961470499211582 .976852261300666 .984543142345208 .9
9223402338975 16 27 151 0 ?26 16 348 349 0 0 1 30 13 155 0 16 349 6 0 +.99362681
6594387 0 -.563550107517499 -.2588190451025405 0 -.965925826289063 16 16 154 0 ?
28 9 27 13 0 0 1 17 28 0 0 0 0 18 21 16 0 0 +17 21 0 24 19 22 10 28 16 0 0 -15 2
4 11 0 19 12 356 17 19 0 24 36 21 37 17 20 0 344 -17 36 0 24 33 19 34 344 339 0
 347 -17 344 0 0 0 0 37 36 339 0 0 +17 33 0 24 25 36 29 347 345 0 352 -17 347 0
 0 0 0 34 33 345 0 0 +17 25 0 24 22 33 23 352 348 0 26 -17 352 0 0 0 0 29 25 348
 0 0 +17 26 0 0 0 0 23 22 27 0 0 +14 255 12 1 357 ?0 0 164 4 5 +0 0 0 0 4 15 356
 12 0 15 12 0 17 15 0 356 15 15 0 358 9 0 0 +17 358 0 0 0 0 0 15 9 0 0 -81 255 1
 357 421 359 12 360 0 0 0 361 80 255 1 359 362 363 9000 1 1 1 1 1 1 1 1 0 FFFFTF
TFFFFFFF1 81 1 360 367 364 12 0 357 0 0 365 82 255 1 361 -1606680387 80 1 364 0
 366 8001 0 0 0 0 3 5 0 0 0 FFFFTFTFFFFFFF2 83 255 3 365 .792156862745098 .81960
7843137255 .933333333333333 79 255 15 366 SDL/TYSA_COLOUR79 14 363 SWEntUnchange
d17 335 0 0 0 0 42 367 333 0 0 +17 367 0 368 56 44 39 335 333 0 0 -15 368 10 0 5
6 12 24 17 56 0 368 53 367 54 41 309 0 318 -17 44 0 368 367 47 42 332 327 0 335
 -17 47 0 368 44 50 45 326 322 0 332 -17 332 0 0 0 0 45 44 327 0 0 +17 50 0 368
 47 53 48 321 319 0 326 -17 326 0 0 0 0 48 47 322 0 0 +17 53 0 368 50 56 51 318
 313 0 321 -17 321 0 0 0 0 51 50 319 0 0 +17 318 0 0 0 0 54 53 313 0 0 +17 41 0
 0 0 0 39 56 309 0 367 +17 308 0 0 0 0 60 369 306 0 0 +17 369 0 370 74 62 57 308
 306 0 0 -15 370 9 0 74 12 368 17 74 0 370 71 369 72 59 282 0 291 -17 62 0 370 3
69 65 60 305 300 0 308 -17 65 0 370 62 68 63 299 295 0 305 -17 305 0 0 0 0 63 62
 300 0 0 +17 68 0 370 65 71 66 294 292 0 299 -17 299 0 0 0 0 66 65 295 0 0 +17 7
1 0 370 68 74 69 291 286 0 294 -17 294 0 0 0 0 69 68 292 0 0 +17 291 0 0 0 0 72
 71 286 0 0 +17 59 0 0 0 0 57 74 282 0 369 +17 281 0 0 0 0 78 371 279 0 0 +17 37
1 0 372 92 80 75 281 279 0 0 -15 372 8 0 92 12 370 17 92 0 372 89 371 90 77 255
 0 264 -17 80 0 372 371 83 78 278 273 0 281 -17 83 0 372 80 86 81 272 268 0 278
 -17 278 0 0 0 0 81 80 273 0 0 +17 86 0 372 83 89 84 267 265 0 272 -17 272 0 0 0
 0 84 83 268 0 0 +17 89 0 372 86 92 87 264 259 0 267 -17 267 0 0 0 0 87 86 265 0
 0 +17 264 0 0 0 0 90 89 259 0 0 +17 77 0 0 0 0 75 92 255 0 371 +17 254 0 0 0 0
 96 373 252 0 0 +17 373 0 374 110 98 93 254 252 0 0 -15 374 7 0 110 12 372 17 11
0 0 374 107 373 108 95 228 0 237 -17 98 0 374 373 101 96 251 246 0 254 -17 101 0
 374 98 104 99 245 241 0 251 -17 251 0 0 0 0 99 98 246 0 0 +17 104 0 374 101 107
 102 240 238 0 245 -17 245 0 0 0 0 102 101 241 0 0 +17 107 0 374 104 110 105 237
 232 0 240 -17 240 0 0 0 0 105 104 238 0 0 +17 237 0 0 0 0 108 107 232 0 0 +17 9
5 0 0 0 0 93 110 228 0 373 +17 227 0 0 0 0 114 375 225 0 0 +17 375 0 376 122 116
 111 227 225 0 0 -15 376 6 0 122 12 374 17 122 0 376 119 375 120 113 217 0 221 -
17 116 0 376 375 119 114 224 222 0 227 -17 119 0 376 116 122 117 221 219 0 224 -
17 224 0 0 0 0 117 116 222 0 0 +17 221 0 0 0 0 120 119 219 0 0 +17 113 0 0 0 0 1
11 122 217 0 375 +17 216 0 0 0 0 126 377 214 0 0 +17 377 0 378 134 128 123 216 2
14 0 0 -15 378 5 0 134 12 376 17 134 0 378 131 377 132 125 206 0 210 -17 128 0 3
78 377 131 126 213 211 0 216 -17 131 0 378 128 134 129 210 208 0 213 -17 213 0 0
 0 0 129 128 211 0 0 +17 210 0 0 0 0 132 131 208 0 0 +17 125 0 0 0 0 123 134 206
 0 377 +17 205 0 0 0 0 138 379 203 0 0 +17 379 0 168 152 140 135 205 203 0 0 -15
 168 4 0 152 12 378 17 152 0 168 149 379 150 137 179 0 188 -17 140 0 168 379 143
 138 202 197 0 205 -17 143 0 168 140 146 141 196 192 0 202 -17 202 0 0 0 0 141 1
40 197 0 0 +17 146 0 168 143 149 144 191 189 0 196 -17 196 0 0 0 0 144 143 192 0
 0 +17 149 0 168 146 152 147 188 183 0 191 -17 191 0 0 0 0 147 146 189 0 0 +17 1
88 0 0 0 0 150 149 183 0 0 +17 137 0 0 0 0 135 152 179 0 379 +17 171 0 0 0 0 156
 165 172 0 0 +17 170 0 0 0 0 159 158 174 0 0 +17 158 0 164 165 161 156 170 174 0
 171 -74 4 CI16 index_map_offset0 0 1 dCCZ20 11 2 0 0 360 357 0 0 0 0 0 0 0 0 0
 0 0 0 0 0 0 0 0 0 1 0 
